#!OML:ASF H:\Pregnant\Project 1\Capture day 1\Session 1\femalepreg.ASF
:FULLY-SPECIFIED
:DEGREES
500
root 7.73286 18.2432 11.9577 -156.614 -3.35891 -177.906
lowerback -11.4378 -0.0866116 0.642825
upperback -7.07512 -1.41231 6.05135
thorax -0.855503 -1.13165 5.83354
lowerneck -20.4963 -4.67474 0.0440743
upperneck 40.6063 -1.62141 -3.30344
head 18.871 0.2563 -1.4789
rclavicle -1.36167e-014 -1.59028e-014
rhumerus -39.2494 -15.5218 -59.6953
rradius 34.474
rwrist -1.03812
rhand -10.1486 -17.1522
rfingers 7.12502
rthumb 15.8406 -46.5242
lclavicle -1.36167e-014 -1.59028e-014
lhumerus -40.4037 -2.02579 74.0996
lradius 31.6975
lwrist 40.3189
lhand -26.2238 -2.18351
lfingers 7.12502
lthumb 0.329569 27.796
rfemur -76.214 6.51627 19.6101
rtibia 68.1834
rfoot -14.0335 -2.48149
rtoes -11.7924
lfemur -8.40647 -12.8145 -17.1547
ltibia -2.70347e-014
lfoot -3.81888 2.15063
ltoes -48.503
501
root 7.75577 18.2772 11.8716 -156.583 -3.54689 -177.986
lowerback -11.596 -0.0837076 0.979852
upperback -7.21674 -1.49107 6.17386
thorax -0.914093 -1.19872 5.76441
lowerneck -20.53 -4.58861 0.158229
upperneck 40.791 -1.36361 -3.50989
head 18.9984 0.371511 -1.54092
rclavicle 2.98177e-015 -1.59028e-014
rhumerus -39.1976 -15.6512 -59.671
rradius 34.7477
rwrist -1.23577
rhand -10.547 -17.3506
rfingers 7.12502
rthumb 15.4569 -46.7526
lclavicle 2.98177e-015 -1.59028e-014
lhumerus -40.8758 -1.58927 73.8333
lradius 31.357
lwrist 40.3451
lhand -26.1694 -1.96262
lfingers 7.12502
lthumb 0.382102 28.0168
rfemur -75.7078 6.41668 19.7294
rtibia 68.1055
rfoot -14.4926 -2.63339
rtoes -11.3332
lfemur -8.23309 -12.9391 -17.0653
ltibia -1.43125e-014
lfoot -3.32379 1.46611
ltoes -48.7912
502
root 7.77877 18.3129 11.7858 -156.55 -3.71697 -178.074
lowerback -11.7678 -0.0752038 1.29315
upperback -7.35566 -1.5622 6.29388
thorax -0.963689 -1.26195 5.70698
lowerneck -20.5232 -4.49134 0.252815
upperneck 40.9479 -1.09403 -3.68636
head 19.1014 0.491786 -1.58153
rclavicle -1.07344e-014 1.59028e-015
rhumerus -39.1774 -15.7394 -59.6527
rradius 35.0561
rwrist -1.47947
rhand -10.9703 -17.4975
rfingers 7.12502
rthumb 15.0491 -46.9305
lclavicle -1.07344e-014 1.59028e-015
lhumerus -41.3416 -1.15088 73.5766
lradius 31.0233
lwrist 40.3389
lhand -26.0873 -1.73628
lfingers 7.12502
lthumb 0.461423 28.243
rfemur -75.1886 6.34555 19.8231
rtibia 67.9904
rfoot -14.913 -2.79986
rtoes -10.9761
lfemur -8.07433 -13.0486 -16.9815
ltibia 0
lfoot -2.78595 0.714031
ltoes -49.0313
503
root 7.80209 18.3498 11.7011 -156.507 -3.86889 -178.172
lowerback -11.9462 -0.0623339 1.5767
upperback -7.49117 -1.62573 6.4102
thorax -1.00701 -1.32077 5.66344
lowerneck -20.5063 -4.38499 0.342805
upperneck 41.0814 -0.819623 -3.84771
head 19.1894 0.613443 -1.61292
rclavicle -4.07509e-015 6.04305e-014
rhumerus -39.171 -15.802 -59.6426
rradius 35.3836
rwrist -1.76429
rhand -11.4087 -17.5703
rfingers 7.12502
rthumb 14.6267 -47.0345
lclavicle -4.07509e-015 6.04305e-014
lhumerus -41.7909 -0.71097 73.3293
lradius 30.7043
lwrist 40.3062
lhand -26.0042 -1.48637
lfingers 7.12502
lthumb 0.541661 28.4927
rfemur -74.6738 6.30745 19.8868
rtibia 67.8358
rfoot -15.2767 -2.99425
rtoes -10.7744
lfemur -7.94527 -13.143 -16.9017
ltibia 2.54444e-014
lfoot -2.2004 -0.102845
ltoes -49.2175
504
root 7.8253 18.3882 11.6165 -156.46 -3.99523 -178.273
lowerback -12.1376 -0.039418 1.84255
upperback -7.62485 -1.67657 6.52221
thorax -1.04287 -1.37336 5.62674
lowerneck -20.4535 -4.27362 0.407664
upperneck 41.1859 -0.544411 -3.97764
head 19.2517 0.734482 -1.62352
rclavicle -2.98177e-016 -1.74931e-014
rhumerus -39.1956 -15.833 -59.6316
rradius 35.7308
rwrist -2.0938
rhand -11.8288 -17.5273
rfingers 7.12502
rthumb 14.222 -47.0204
lclavicle -2.98177e-016 -1.74931e-014
lhumerus -42.2361 -0.274071 73.0926
lradius 30.4006
lwrist 40.2394
lhand -25.9099 -1.24041
lfingers 7.12502
lthumb 0.632783 28.7384
rfemur -74.1501 6.3084 19.9279
rtibia 67.6415
rfoot -15.5909 -3.21457
rtoes -10.7178
lfemur -7.8324 -13.2134 -16.8266
ltibia 4.77083e-014
lfoot -1.56783 -0.981428
ltoes -49.3409
505
root 7.84858 18.4276 11.5329 -156.411 -4.09356 -178.379
lowerback -12.3226 -0.00735426 2.08464
upperback -7.75426 -1.71251 6.62705
thorax -1.07919 -1.41764 5.59782
lowerneck -20.4021 -4.16058 0.4672
upperneck 41.2702 -0.280242 -4.08873
head 19.3026 0.850601 -1.62667
rclavicle 9.93923e-016 -3.81667e-014
rhumerus -39.2364 -15.8505 -59.6211
rradius 36.0814
rwrist -2.45636
rhand -12.2035 -17.3886
rfingers 7.12502
rthumb 13.8609 -46.9067
lclavicle 9.93923e-016 -3.81667e-014
lhumerus -42.6728 0.143795 72.873
lradius 30.1303
lwrist 40.1594
lhand -25.8242 -1.02019
lfingers 7.12502
lthumb 0.715554 28.9584
rfemur -73.6205 6.35515 19.9385
rtibia 67.4117
rfoot -15.8602 -3.45679
rtoes -10.7234
lfemur -7.73475 -13.2585 -16.7589
ltibia 6.36111e-014
lfoot -0.879976 -1.91468
ltoes -49.3953
506
root 7.87167 18.4685 11.45 -156.368 -4.16585 -178.489
lowerback -12.4973 0.03421 2.30866
upperback -7.88716 -1.73421 6.72489
thorax -1.12612 -1.45461 5.574
lowerneck -20.3178 -4.0558 0.521168
upperneck 41.3327 -0.0345924 -4.19139
head 19.3305 0.958998 -1.62801
rclavicle 5.36719e-015 6.83819e-014
rhumerus -39.3145 -15.8344 -59.6052
rradius 36.4379
rwrist -2.85561
rhand -12.5281 -17.2232
rfingers 7.12502
rthumb 13.5481 -46.7624
lclavicle 5.36719e-015 6.83819e-014
lhumerus -43.1221 0.533211 72.6749
lradius 29.8976
lwrist 40.0734
lhand -25.7484 -0.833192
lfingers 7.12502
lthumb 0.788716 29.1451
rfemur -73.0734 6.44773 19.9198
rtibia 67.1492
rfoot -16.0977 -3.71618
rtoes -10.7333
lfemur -7.64407 -13.2799 -16.6994
ltibia 1.90833e-014
lfoot -0.127173 -2.89025
ltoes -49.3817
507
root 7.89425 18.5108 11.3674 -156.34 -4.20865 -178.599
lowerback -12.6533 0.0813734 2.51512
upperback -8.00799 -1.74407 6.81803
thorax -1.17133 -1.48423 5.55672
lowerneck -20.2584 -3.9598 0.578951
upperneck 41.3809 0.181806 -4.28914
head 19.3554 1.05388 -1.6351
rclavicle -5.36719e-015 1.11319e-014
rhumerus -39.3913 -15.8023 -59.5942
rradius 36.7844
rwrist -3.27952
rhand -12.8191 -17.101
rfingers 7.12502
rthumb 13.2676 -46.6587
lclavicle -5.36719e-015 1.11319e-014
lhumerus -43.5652 0.904803 72.499
lradius 29.7078
lwrist 39.987
lhand -25.6636 -0.709713
lfingers 7.12502
lthumb 0.870688 29.2683
rfemur -72.4976 6.58838 19.8743
rtibia 66.8556
rfoot -16.3137 -3.98797
rtoes -10.708
lfemur -7.54761 -13.2747 -16.6522
ltibia 3.18055e-014
lfoot 0.693199 -3.89309
ltoes -49.3119
508
root 7.91623 18.5541 11.286 -156.329 -4.22688 -178.713
lowerback -12.7796 0.131776 2.70576
upperback -8.11357 -1.74265 6.90193
thorax -1.21736 -1.50604 5.54017
lowerneck -20.2437 -3.86054 0.648132
upperneck 41.4235 0.384106 -4.37782
head 19.389 1.14293 -1.64437
rclavicle 1.49089e-015 1.11319e-014
rhumerus -39.454 -15.7765 -59.5889
rradius 37.1039
rwrist -3.7103
rhand -13.0715 -16.996
rfingers 7.12502
rthumb 13.0243 -46.5694
lclavicle 1.49089e-015 1.11319e-014
lhumerus -43.9977 1.24475 72.3495
lradius 29.5753
lwrist 39.9204
lhand -25.5803 -0.634519
lfingers 7.12502
lthumb 0.951144 29.3431
rfemur -71.8966 6.76989 19.8022
rtibia 66.5323
rfoot -16.504 -4.2722
rtoes -10.6676
lfemur -7.44841 -13.2487 -16.6186
ltibia 2.22639e-014
lfoot 1.58598 -4.91073
ltoes -49.1876
509
root 7.93737 18.5985 11.2056 -156.334 -4.23187 -178.828
lowerback -12.8814 0.183548 2.89035
upperback -8.20864 -1.73414 6.97557
thorax -1.26614 -1.52285 5.5172
lowerneck -20.2524 -3.76318 0.723773
upperneck 41.4576 0.565824 -4.45376
head 19.4231 1.22401 -1.65394
rclavicle 9.74045e-015 1.59028e-015
rhumerus -39.5073 -15.7517 -59.5897
rradius 37.3912
rwrist -4.1464
rhand -13.283 -16.9352
rfingers 7.12502
rthumb 12.8204 -46.5215
lclavicle 9.74045e-015 1.59028e-015
lhumerus -44.4268 1.55593 72.2229
lradius 29.4952
lwrist 39.8718
lhand -25.5014 -0.592106
lfingers 7.12502
lthumb 1.02727 29.3852
rfemur -71.2682 6.97524 19.7147
rtibia 66.179
rfoot -16.6729 -4.5675
rtoes -10.6392
lfemur -7.34861 -13.2121 -16.5953
ltibia -1.27222e-014
lfoot 2.55497 -5.93666
ltoes -49.0206
